<svg xmlns="http://www.w3.org/2000/svg" width="96" height="96" viewBox="0 0 96 96" fill="none">
  <rect width="96" height="96" rx="24" fill="#00CC6A"/>
  <rect x="10" y="10" width="76" height="76" rx="18" fill="url(#a)"/>
  <g filter="url(#b)">
    <path fill="#06110C" d="M26 24h28c11.046 0 20 8.954 20 20s-8.954 20-20 20H42v14H26V24Zm16 16v8h12a4 4 0 0 0 0-8H42Z"/>
    <path fill="#EFFFF7" d="M42 40h12a4 4 0 0 1 0 8H42v-8Z"/>
  </g>
  <g opacity=".92">
    <rect x="58" y="58" width="8" height="8" rx="2" fill="#EFFFF7"/>
    <rect x="68" y="58" width="8" height="8" rx="2" fill="#00D4FF"/>
    <rect x="58" y="68" width="8" height="8" rx="2" fill="#06110C"/>
    <rect x="68" y="68" width="8" height="8" rx="2" fill="#EFFFF7"/>
  </g>
  <defs>
    <linearGradient id="a" x1="10" x2="86" y1="10" y2="86" gradientUnits="userSpaceOnUse">
      <stop stop-color="#36F59A"/>
      <stop offset="1" stop-color="#00B85F"/>
    </linearGradient>
    <filter id="b" width="56" height="58" x="22" y="22" color-interpolation-filters="sRGB" filterUnits="userSpaceOnUse">
      <feFlood flood-opacity="0" result="BackgroundImageFix"/>
      <feColorMatrix in="SourceAlpha" result="hardAlpha" values="0 0 0 0 0 0 0 0 0 0 0 0 0 0 0 0 0 0 127 0"/>
      <feOffset dy="2"/>
      <feGaussianBlur stdDeviation="2"/>
      <feComposite in2="hardAlpha" operator="out"/>
      <feColorMatrix values="0 0 0 0 0 0 0 0 0 0.18 0 0 0 0 0.1 0 0 0 0.24 0"/>
      <feBlend in2="BackgroundImageFix" result="effect1_dropShadow"/>
      <feBlend in="SourceGraphic" in2="effect1_dropShadow" result="shape"/>
    </filter>
  </defs>
</svg>
